# xmcd
#
# Track frame offsets:
#	183
#	19320
#	39158
#	59133
#	79375
#	100203
#	121005
#	143960
#	162270
#
# Disc length: 2404 seconds
#
# Revision: 3
# Processed by: cddbd v1.5.2PL0 Copyright (c) Steve Scherf et al.
# Submitted via: EasyCDDAExtractor 10.0.2.1
#
DISCID=76096209
DTITLE=이소라 - 이소라 Vol.1
DYEAR=1995
DGENRE=Ballad
TTITLE0=고백
TTITLE1=처음 느낌 그대로
TTITLE2=난 행복해
TTITLE3=잊지 말기로 해
TTITLE4=더위
TTITLE5=운명
TTITLE6=우연히
TTITLE7=권태
TTITLE8=±×³É ÀÌ·¸°Ô
EXTD=
EXTT0=
EXTT1=
EXTT2=
EXTT3=
EXTT4=
EXTT5=
EXTT6=
EXTT7=
EXTT8=
PLAYORDER=
